<svg width="18" height="18" viewBox="0 0 18 18" fill="none" xmlns="http://www.w3.org/2000/svg">
<mask id="mask0_2_602" style="mask-type:alpha" maskUnits="userSpaceOnUse" x="0" y="0" width="18" height="18">
<rect width="18" height="18" fill="#D9D9D9"/>
</mask>
<g mask="url(#mask0_2_602)">
<path d="M6.72116 16.5447C6.14616 16.5447 5.63655 16.3827 5.19233 16.0586C4.74809 15.7346 4.42261 15.3052 4.21588 14.7706C4.03992 15.0283 3.80843 15.2266 3.52142 15.3656C3.23441 15.5045 2.93561 15.574 2.62502 15.574C2.04522 15.574 1.55652 15.3735 1.15894 14.9724C0.761337 14.5714 0.562537 14.0844 0.562537 13.5115C0.562537 13.0125 0.730325 12.5606 1.0659 12.1557C1.40147 11.7509 1.82599 11.5317 2.33946 11.4981C2.12599 11.2577 1.95916 10.986 1.83896 10.6832C1.71877 10.3803 1.65868 10.063 1.65868 9.73123C1.65868 9.27319 1.77358 8.84378 2.00338 8.44299C2.23319 8.04221 2.55531 7.71393 2.96972 7.45817C3.01802 7.62596 3.08322 7.8054 3.16532 7.9965C3.24742 8.1876 3.33799 8.35526 3.43702 8.49949C3.23317 8.65621 3.07644 8.84388 2.96683 9.06248C2.85721 9.28106 2.80239 9.51023 2.80239 9.74998C2.80239 10.4884 3.08989 10.9546 3.66489 11.1483C4.23989 11.3421 4.80769 11.4937 5.36827 11.6033L5.63076 12.0519C5.49326 12.4519 5.37811 12.7913 5.28532 13.0702C5.19254 13.349 5.14614 13.6033 5.14614 13.8332C5.14614 14.2543 5.29798 14.6228 5.60166 14.9387C5.90533 15.2546 6.2761 15.4125 6.71396 15.4125C7.2178 15.4125 7.63318 15.206 7.96011 14.793C8.28703 14.38 8.55531 13.8921 8.76493 13.3291C8.97454 12.7661 9.13608 12.1921 9.24954 11.607C9.36301 11.0219 9.45579 10.5586 9.52791 10.2173L10.6298 10.5173C10.5221 11.0461 10.3918 11.6562 10.2389 12.3476C10.0861 13.0389 9.86995 13.6959 9.59062 14.3185C9.3113 14.9411 8.94376 15.4678 8.48799 15.8985C8.03223 16.3293 7.44329 16.5447 6.72116 16.5447ZM2.62502 14.449C2.88561 14.449 3.10701 14.3579 3.28922 14.1757C3.47143 13.9935 3.56254 13.7721 3.56254 13.5115C3.56254 13.2509 3.47143 13.0295 3.28922 12.8473C3.10701 12.6651 2.88561 12.574 2.62502 12.574C2.36444 12.574 2.14305 12.6651 1.96084 12.8473C1.77862 13.0295 1.68752 13.2509 1.68752 13.5115C1.68752 13.7721 1.77862 13.9935 1.96084 14.1757C2.14305 14.3579 2.36444 14.449 2.62502 14.449ZM7.56778 11.4216C7.02644 10.938 6.53342 10.4863 6.08871 10.0666C5.64399 9.64686 5.26071 9.23724 4.93886 8.83772C4.617 8.43821 4.36964 8.03869 4.19679 7.63918C4.02394 7.23966 3.93752 6.82451 3.93752 6.39375C3.93752 5.63401 4.19758 4.99408 4.71771 4.47396C5.23783 3.95382 5.87776 3.69375 6.6375 3.69375C6.73077 3.69375 6.81419 3.69928 6.88776 3.71034C6.96131 3.72141 7.03511 3.73415 7.10916 3.74858C7.05434 3.62838 7.01203 3.50655 6.98222 3.3831C6.95242 3.25965 6.93752 3.13003 6.93752 2.99424C6.93752 2.42133 7.13796 1.93436 7.53883 1.53332C7.93971 1.13228 8.42648 0.931763 8.99916 0.931763C9.57183 0.931763 10.0589 1.13228 10.4603 1.53332C10.8618 1.93436 11.0625 2.42133 11.0625 2.99424C11.0625 3.13174 11.0476 3.25987 11.0178 3.37862C10.988 3.49737 10.9457 3.61684 10.8908 3.73703C10.9649 3.7226 11.0387 3.71178 11.1122 3.70457C11.1858 3.69736 11.2692 3.69375 11.3625 3.69375C12.0211 3.69375 12.5877 3.89471 13.0622 4.29664C13.5368 4.69855 13.8384 5.20287 13.9673 5.80959C13.7959 5.78171 13.603 5.76776 13.3887 5.76776C13.1744 5.76776 12.9774 5.77786 12.7976 5.79806C12.6861 5.51056 12.5039 5.27546 12.251 5.09276C11.9981 4.91008 11.703 4.81873 11.3657 4.81873C10.9116 4.81873 10.5543 4.94325 10.2937 5.19229C10.0332 5.44133 9.68557 5.81681 9.25095 6.31873H8.7303C8.28317 5.79662 7.92932 5.41609 7.66875 5.17714C7.40817 4.9382 7.06442 4.81873 6.6375 4.81873C6.18344 4.81873 5.80742 4.96772 5.50944 5.26569C5.21147 5.56367 5.06248 5.93969 5.06248 6.39375C5.06248 6.68279 5.14012 6.98125 5.29541 7.28914C5.4507 7.59701 5.67126 7.92283 5.95708 8.26658C6.24291 8.61033 6.58954 8.97595 6.99697 9.36345C7.40442 9.75095 7.862 10.1697 8.3697 10.6197L7.56778 11.4216ZM9 3.93176C9.26057 3.93176 9.48197 3.84066 9.6642 3.65844C9.84641 3.47622 9.93752 3.25482 9.93752 2.99424C9.93752 2.73367 9.84641 2.51227 9.6642 2.33004C9.48197 2.14783 9.26057 2.05673 9 2.05673C8.73942 2.05673 8.51802 2.14783 8.3358 2.33004C8.15359 2.51227 8.06248 2.73367 8.06248 2.99424C8.06248 3.25482 8.15359 3.47622 8.3358 3.65844C8.51802 3.84066 8.73942 3.93176 9 3.93176ZM11.2457 16.5519C11.0192 16.5519 10.7953 16.5236 10.574 16.4671C10.3527 16.4105 10.1391 16.321 9.93319 16.1985C10.0367 16.0661 10.1402 15.91 10.2437 15.7303C10.3472 15.5505 10.4413 15.385 10.5259 15.2336C10.6502 15.3004 10.7745 15.3481 10.8988 15.3768C11.0231 15.4054 11.1473 15.4197 11.2716 15.4197C11.7149 15.4197 12.0901 15.262 12.3973 14.9466C12.7046 14.6312 12.8582 14.2562 12.8582 13.8216C12.8582 13.5856 12.8118 13.3309 12.719 13.0576C12.6262 12.7842 12.5111 12.4476 12.3736 12.0476L12.6433 11.599C13.2163 11.4894 13.7873 11.3365 14.356 11.1404C14.9248 10.9442 15.2091 10.4769 15.2091 9.73843C15.2091 9.18554 15.0103 8.77978 14.6127 8.52113C14.2151 8.26246 13.7736 8.13313 13.288 8.13313C12.7735 8.13313 12.1732 8.22592 11.4872 8.41149C10.8012 8.59707 10.0038 8.8413 9.09519 9.14419L8.79519 8.04229C9.71249 7.74902 10.5338 7.50095 11.259 7.29806C11.9842 7.09518 12.6499 6.99373 13.2562 6.99373C14.0658 6.99373 14.7812 7.23316 15.4024 7.71201C16.0235 8.19085 16.3341 8.86632 16.3341 9.73843C16.3341 10.0681 16.2752 10.3813 16.1574 10.678C16.0396 10.9747 15.874 11.2481 15.6605 11.4981C16.174 11.5365 16.5985 11.7557 16.9341 12.1557C17.2697 12.5557 17.4375 13.0077 17.4375 13.5115C17.4375 14.0788 17.2387 14.5644 16.8411 14.9682C16.4435 15.3721 15.9548 15.574 15.375 15.574C15.0644 15.574 14.7656 15.5045 14.4786 15.3656C14.1916 15.2266 13.9601 15.0283 13.7841 14.7706C13.5774 15.3052 13.2495 15.7358 12.8005 16.0622C12.3514 16.3887 11.8332 16.5519 11.2457 16.5519ZM15.3937 14.449C15.6543 14.449 15.8726 14.3579 16.0485 14.1757C16.2245 13.9935 16.3125 13.7721 16.3125 13.5115C16.3125 13.2509 16.2214 13.0264 16.0392 12.8379C15.8569 12.6495 15.6356 12.5552 15.375 12.5552C15.1144 12.5552 14.893 12.6464 14.7108 12.8286C14.5286 13.0108 14.4375 13.2322 14.4375 13.4928C14.4375 13.7533 14.5317 13.9779 14.7202 14.1663C14.9086 14.3548 15.1331 14.449 15.3937 14.449Z" fill="#AEBAD4"/>
</g>
</svg>
