<svg width="19" height="19" viewBox="0 0 19 19" fill="none" xmlns="http://www.w3.org/2000/svg">
<mask id="mask0_2_592" style="mask-type:alpha" maskUnits="userSpaceOnUse" x="0" y="0" width="19" height="19">
<rect width="19" height="19" fill="#D9D9D9"/>
</mask>
<g mask="url(#mask0_2_592)">
<path d="M8.43734 16.9448C7.84407 16.9448 7.39329 16.7681 7.08501 16.4148C6.77674 16.0615 6.6226 15.659 6.6226 15.2073C6.6226 14.9061 6.68832 14.6117 6.81977 14.3239C6.9512 14.0362 7.15748 13.7995 7.43863 13.6137C7.73398 13.4188 7.97579 13.1623 8.16408 12.8441C8.35235 12.5259 8.48708 12.1791 8.56828 11.8035C8.46374 11.7589 8.36047 11.7104 8.25846 11.6581C8.15646 11.6059 8.05978 11.5406 7.96844 11.4625L6.13236 12.1232C5.92328 12.1973 5.72262 12.2582 5.53036 12.3059C5.3381 12.3536 5.13984 12.3775 4.93556 12.3775C4.17853 12.3775 3.50923 12.0431 2.92766 11.3742C2.3461 10.7054 2.05532 9.72646 2.05532 8.43744C2.05532 7.84417 2.23152 7.39339 2.58391 7.08512C2.93631 6.77684 3.33203 6.6227 3.77108 6.6227C4.07861 6.6227 4.37828 6.68843 4.67007 6.81987C4.96187 6.9513 5.20064 7.15759 5.38637 7.43873C5.58124 7.73408 5.83778 7.97589 6.15597 8.16418C6.47416 8.35245 6.82102 8.48718 7.19656 8.56838C7.24122 8.46384 7.28969 8.36057 7.34195 8.25856C7.39423 8.15656 7.45944 8.05988 7.53759 7.96854L6.87687 6.13246C6.80277 5.92846 6.74187 5.72852 6.69417 5.53264C6.64646 5.33675 6.6226 5.1434 6.6226 4.95258C6.6226 4.12844 6.97911 3.43955 7.69212 2.8859C8.40513 2.33225 9.36197 2.05542 10.5626 2.05542C11.1559 2.05542 11.6067 2.23125 11.915 2.58291C12.2232 2.93457 12.3774 3.32946 12.3774 3.7676C12.3774 4.06737 12.3117 4.36443 12.1802 4.65876C12.0488 4.9531 11.8425 5.19313 11.5614 5.37886C11.266 5.57374 11.0242 5.83154 10.8359 6.15226C10.6476 6.47299 10.5129 6.82112 10.4317 7.19666C10.5413 7.24639 10.6474 7.2979 10.7498 7.3512C10.8523 7.40447 10.9462 7.46664 11.0316 7.53769L12.8676 6.85718C13.0767 6.78308 13.2743 6.72548 13.4606 6.68437C13.6468 6.64326 13.842 6.6227 14.0463 6.6227C15.0194 6.6227 15.7458 7.02919 16.2253 7.84217C16.7049 8.65514 16.9447 9.562 16.9447 10.5627C16.9447 11.156 16.7589 11.6068 16.3875 11.9151C16.016 12.2234 15.6039 12.3775 15.1512 12.3775C14.861 12.3775 14.5786 12.3118 14.304 12.1803C14.0295 12.0489 13.7994 11.8426 13.6136 11.5615C13.4187 11.2661 13.1622 11.0243 12.844 10.836C12.5258 10.6477 12.179 10.513 11.8034 10.4318C11.7588 10.5363 11.7103 10.6384 11.658 10.7378C11.6058 10.8373 11.5405 10.9352 11.4624 11.0317L12.1231 12.8677C12.1958 13.0644 12.2563 13.2518 12.3047 13.4301C12.3532 13.6083 12.3774 13.7903 12.3774 13.976C12.3804 14.7474 12.0487 15.435 11.3822 16.0389C10.7156 16.6428 9.73402 16.9448 8.43734 16.9448ZM9.5018 10.8094C9.86599 10.8094 10.1749 10.6819 10.4287 10.427C10.6824 10.1721 10.8093 9.86249 10.8093 9.49829C10.8093 9.1341 10.6818 8.82514 10.4269 8.57141C10.172 8.31767 9.8624 8.1908 9.49819 8.1908C9.134 8.1908 8.82504 8.31826 8.57131 8.57319C8.31757 8.82814 8.1907 9.1377 8.1907 9.5019C8.1907 9.86609 8.31816 10.175 8.57309 10.4288C8.82802 10.6825 9.13759 10.8094 9.5018 10.8094ZM8.52868 7.21495C8.64336 7.15811 8.76136 7.11472 8.88265 7.08478C9.00394 7.05483 9.12447 7.0358 9.24425 7.02768C9.3498 6.47859 9.54086 5.97416 9.81743 5.51437C10.094 5.0546 10.4561 4.67907 10.9037 4.38779C10.995 4.31978 11.0656 4.23605 11.1153 4.13657C11.165 4.03711 11.1899 3.91532 11.1899 3.77118C11.1899 3.62289 11.1389 3.49776 11.0369 3.39581C10.9349 3.29386 10.7768 3.24288 10.5626 3.24288C10.0499 3.24288 9.46971 3.35918 8.82205 3.59179C8.17439 3.82438 7.83706 4.27899 7.81008 4.95563C7.81008 5.08251 7.82784 5.20126 7.86336 5.31188C7.89889 5.42252 7.92985 5.52401 7.95624 5.61638L8.52868 7.21495ZM4.93269 11.19C5.11235 11.19 5.34021 11.1413 5.61627 11.0438L7.22245 10.4714C7.16561 10.3669 7.12095 10.254 7.08848 10.1327C7.05599 10.0114 7.03569 9.88577 7.02758 9.75584C6.47849 9.65029 5.97406 9.45923 5.51427 9.18266C5.05449 8.90609 4.67897 8.54401 4.38769 8.09641C4.31968 8.00507 4.23011 7.93452 4.11896 7.88478C4.00782 7.83505 3.89186 7.81018 3.77108 7.81018C3.60158 7.81018 3.47116 7.86119 3.37982 7.96319C3.28846 8.0652 3.24278 8.22328 3.24278 8.43744C3.24278 9.16606 3.38713 9.80698 3.67582 10.3602C3.96451 10.9134 4.38347 11.19 4.93269 11.19ZM8.43734 15.7573C9.06785 15.7573 9.6883 15.6231 10.2987 15.3546C10.9091 15.0862 11.2061 14.6266 11.1899 13.976C11.1899 13.8613 11.1721 13.7537 11.1366 13.6532C11.1011 13.5528 11.0701 13.463 11.0437 13.3838L10.4713 11.7776C10.3566 11.8396 10.2348 11.8855 10.1059 11.9154C9.97702 11.9454 9.86029 11.9644 9.75574 11.9725C9.65019 12.5216 9.45912 13.026 9.18256 13.4858C8.90599 13.9456 8.5439 14.3211 8.09631 14.6124C8.01003 14.6753 7.93873 14.7624 7.8824 14.8735C7.82607 14.9847 7.80197 15.0966 7.81008 15.2092C7.8182 15.3554 7.8692 15.4833 7.96309 15.5929C8.05697 15.7025 8.21505 15.7573 8.43734 15.7573ZM15.1599 11.19C15.3175 11.19 15.4565 11.1456 15.5768 11.0568C15.6971 10.968 15.7572 10.8033 15.7572 10.5627C15.7572 10.05 15.6444 9.46644 15.4189 8.81204C15.1933 8.15763 14.7352 7.82368 14.0445 7.81018C13.9176 7.81018 13.8001 7.82338 13.692 7.84977C13.5839 7.87616 13.4812 7.90508 13.3837 7.93655L11.7851 8.52878C11.8369 8.6384 11.879 8.75512 11.9115 8.87895C11.944 9.00277 11.9643 9.12457 11.9724 9.24435C12.5215 9.3499 13.0259 9.54097 13.4857 9.81753C13.9455 10.0941 14.321 10.4562 14.6123 10.9038C14.662 10.985 14.7395 11.053 14.8446 11.1078C14.9497 11.1626 15.0548 11.19 15.1599 11.19Z" fill="#AEBAD4"/>
</g>
</svg>
