<svg width="17" height="17" viewBox="0 0 17 17" fill="none" xmlns="http://www.w3.org/2000/svg">
<path d="M14.3437 11.763V5.23711C14.7062 5.14417 15.0376 4.95698 15.3043 4.69455C15.571 4.43212 15.7635 4.10379 15.8623 3.7429C15.9611 3.38201 15.9626 3.0014 15.8668 2.63972C15.7709 2.27804 15.581 1.94817 15.3165 1.68359C15.0519 1.41901 14.722 1.22915 14.3603 1.13328C13.9986 1.03742 13.618 1.03895 13.2571 1.13774C12.8963 1.23653 12.5679 1.42905 12.3055 1.69576C12.0431 1.96246 11.8559 2.29386 11.7629 2.6563H5.23706C5.14411 2.29386 4.95692 1.96246 4.69449 1.69576C4.43206 1.42905 4.10373 1.23653 3.74284 1.13774C3.38195 1.03895 3.00134 1.03742 2.63966 1.13328C2.27798 1.22915 1.94811 1.41901 1.68353 1.68359C1.41896 1.94817 1.2291 2.27804 1.13323 2.63972C1.03736 3.0014 1.0389 3.38201 1.13768 3.7429C1.23647 4.10379 1.42899 4.43212 1.6957 4.69455C1.96241 4.95698 2.2938 5.14417 2.65624 5.23711V11.763C2.2938 11.8559 1.96241 12.0431 1.6957 12.3056C1.42899 12.568 1.23647 12.8963 1.13768 13.2572C1.0389 13.6181 1.03736 13.9987 1.13323 14.3604C1.2291 14.7221 1.41896 15.0519 1.68353 15.3165C1.94811 15.5811 2.27798 15.7709 2.63966 15.8668C3.00134 15.9627 3.38195 15.9611 3.74284 15.8624C4.10373 15.7636 4.43206 15.5711 4.69449 15.3043C4.95692 15.0376 5.14411 14.7062 5.23706 14.3438H11.7629C11.8559 14.7062 12.0431 15.0376 12.3055 15.3043C12.5679 15.5711 12.8963 15.7636 13.2571 15.8624C13.618 15.9611 13.9986 15.9627 14.3603 15.8668C14.722 15.7709 15.0519 15.5811 15.3165 15.3165C15.581 15.0519 15.7709 14.7221 15.8668 14.3604C15.9626 13.9987 15.9611 13.6181 15.8623 13.2572C15.7635 12.8963 15.571 12.568 15.3043 12.3056C15.0376 12.0431 14.7062 11.8559 14.3437 11.763ZM13.8125 2.12505C14.0226 2.12505 14.2281 2.18737 14.4028 2.30411C14.5775 2.42086 14.7137 2.5868 14.7941 2.78095C14.8745 2.9751 14.8956 3.18873 14.8546 3.39483C14.8136 3.60094 14.7124 3.79026 14.5638 3.93885C14.4152 4.08745 14.2259 4.18864 14.0198 4.22964C13.8137 4.27063 13.6 4.24959 13.4059 4.16917C13.2117 4.08875 13.0458 3.95257 12.9291 3.77784C12.8123 3.60312 12.75 3.39769 12.75 3.18755C12.7503 2.90586 12.8624 2.63579 13.0615 2.43661C13.2607 2.23742 13.5308 2.12537 13.8125 2.12505ZM2.12499 3.18755C2.12499 2.97741 2.18731 2.77198 2.30406 2.59726C2.42081 2.42253 2.58675 2.28635 2.78089 2.20593C2.97504 2.12551 3.18867 2.10447 3.39478 2.14547C3.60088 2.18646 3.7902 2.28766 3.93879 2.43625C4.08739 2.58484 4.18858 2.77416 4.22958 2.98027C4.27058 3.18637 4.24953 3.40001 4.16912 3.59415C4.0887 3.7883 3.95251 3.95424 3.77779 4.07099C3.60306 4.18774 3.39764 4.25005 3.18749 4.25005C2.90579 4.24977 2.6357 4.13774 2.4365 3.93854C2.23731 3.73934 2.12528 3.46926 2.12499 3.18755ZM3.18749 14.8751C2.97735 14.8751 2.77193 14.8127 2.5972 14.696C2.42247 14.5792 2.28629 14.4133 2.20587 14.2192C2.12545 14.025 2.10441 13.8114 2.14541 13.6053C2.18641 13.3992 2.2876 13.2098 2.43619 13.0612C2.58479 12.9127 2.77411 12.8115 2.98021 12.7705C3.18632 12.7295 3.39995 12.7505 3.59409 12.8309C3.78824 12.9113 3.95418 13.0475 4.07093 13.2223C4.18768 13.397 4.24999 13.6024 4.24999 13.8126C4.24967 14.0942 4.13762 14.3643 3.93844 14.5635C3.73925 14.7627 3.46919 14.8747 3.18749 14.8751ZM11.7629 13.2813H5.23706C5.14191 12.916 4.95105 12.5828 4.68415 12.3159C4.41726 12.049 4.084 11.8581 3.71874 11.763V5.23711C4.08397 5.14192 4.41721 4.95104 4.68409 4.68415C4.95098 4.41727 5.14186 4.08403 5.23706 3.7188H11.7629C11.8581 4.08406 12.0489 4.41732 12.3158 4.68421C12.5827 4.9511 12.916 5.14197 13.2812 5.23711V11.763C12.916 11.8581 12.5827 12.049 12.3158 12.3159C12.0489 12.5828 11.858 12.916 11.7629 13.2813ZM13.8125 14.8751C13.6024 14.8751 13.3969 14.8127 13.2222 14.696C13.0475 14.5792 12.9113 14.4133 12.8309 14.2192C12.7505 14.025 12.7294 13.8114 12.7704 13.6053C12.8114 13.3992 12.9126 13.2098 13.0612 13.0612C13.2098 12.9127 13.3991 12.8115 13.6052 12.7705C13.8113 12.7295 14.0249 12.7505 14.2191 12.8309C14.4132 12.9113 14.5792 13.0475 14.6959 13.2223C14.8127 13.397 14.875 13.6024 14.875 13.8126C14.8746 14.0942 14.7626 14.3643 14.5634 14.5634C14.3642 14.7626 14.0942 14.8747 13.8125 14.8751Z" fill="#AEBAD4"/>
</svg>
