<svg width="18" height="18" viewBox="0 0 18 18" fill="none" xmlns="http://www.w3.org/2000/svg">
<mask id="mask0_2_607" style="mask-type:alpha" maskUnits="userSpaceOnUse" x="0" y="0" width="18" height="18">
<rect width="18" height="18" fill="#D9D9D9"/>
</mask>
<g mask="url(#mask0_2_607)">
<path d="M3.98079 16.1249C3.60194 16.1249 3.28127 15.9937 3.01877 15.7312C2.75627 15.4687 2.62502 15.148 2.62502 14.7692V4.73076C2.62502 4.35191 2.75627 4.03123 3.01877 3.76873C3.28127 3.50623 3.60194 3.37498 3.98079 3.37498H5.01926V1.78845H6.17308V3.37498H11.8558V1.78845H12.9807V3.37498H14.0192C14.3981 3.37498 14.7187 3.50623 14.9812 3.76873C15.2437 4.03123 15.375 4.35191 15.375 4.73076V14.7692C15.375 15.148 15.2437 15.4687 14.9812 15.7312C14.7187 15.9937 14.3981 16.1249 14.0192 16.1249H3.98079ZM3.98079 15H14.0192C14.0769 15 14.1298 14.9759 14.1779 14.9279C14.226 14.8798 14.25 14.8269 14.25 14.7692V7.73076H3.75V14.7692C3.75 14.8269 3.77404 14.8798 3.82211 14.9279C3.8702 14.9759 3.92309 15 3.98079 15ZM3.75 6.60578H14.25V4.73076C14.25 4.67306 14.226 4.62016 14.1779 4.57208C14.1298 4.524 14.0769 4.49996 14.0192 4.49996H3.98079C3.92309 4.49996 3.8702 4.524 3.82211 4.57208C3.77404 4.62016 3.75 4.67306 3.75 4.73076V6.60578ZM9 10.5577C8.81635 10.5577 8.65986 10.493 8.53054 10.3637C8.40121 10.2343 8.33655 10.0779 8.33655 9.89421C8.33655 9.71056 8.40121 9.55407 8.53054 9.42475C8.65986 9.29542 8.81635 9.23076 9 9.23076C9.18365 9.23076 9.34014 9.29542 9.46946 9.42475C9.59879 9.55407 9.66345 9.71056 9.66345 9.89421C9.66345 10.0779 9.59879 10.2343 9.46946 10.3637C9.34014 10.493 9.18365 10.5577 9 10.5577ZM6 10.5577C5.81635 10.5577 5.65986 10.493 5.53054 10.3637C5.40121 10.2343 5.33655 10.0779 5.33655 9.89421C5.33655 9.71056 5.40121 9.55407 5.53054 9.42475C5.65986 9.29542 5.81635 9.23076 6 9.23076C6.18365 9.23076 6.34014 9.29542 6.46946 9.42475C6.59879 9.55407 6.66345 9.71056 6.66345 9.89421C6.66345 10.0779 6.59879 10.2343 6.46946 10.3637C6.34014 10.493 6.18365 10.5577 6 10.5577ZM12 10.5577C11.8164 10.5577 11.6599 10.493 11.5305 10.3637C11.4012 10.2343 11.3366 10.0779 11.3366 9.89421C11.3366 9.71056 11.4012 9.55407 11.5305 9.42475C11.6599 9.29542 11.8164 9.23076 12 9.23076C12.1837 9.23076 12.3401 9.29542 12.4695 9.42475C12.5988 9.55407 12.6635 9.71056 12.6635 9.89421C12.6635 10.0779 12.5988 10.2343 12.4695 10.3637C12.3401 10.493 12.1837 10.5577 12 10.5577ZM9 13.5C8.81635 13.5 8.65986 13.4353 8.53054 13.306C8.40121 13.1767 8.33655 13.0202 8.33655 12.8365C8.33655 12.6529 8.40121 12.4964 8.53054 12.3671C8.65986 12.2377 8.81635 12.173 9 12.173C9.18365 12.173 9.34014 12.2377 9.46946 12.3671C9.59879 12.4964 9.66345 12.6529 9.66345 12.8365C9.66345 13.0202 9.59879 13.1767 9.46946 13.306C9.34014 13.4353 9.18365 13.5 9 13.5ZM6 13.5C5.81635 13.5 5.65986 13.4353 5.53054 13.306C5.40121 13.1767 5.33655 13.0202 5.33655 12.8365C5.33655 12.6529 5.40121 12.4964 5.53054 12.3671C5.65986 12.2377 5.81635 12.173 6 12.173C6.18365 12.173 6.34014 12.2377 6.46946 12.3671C6.59879 12.4964 6.66345 12.6529 6.66345 12.8365C6.66345 13.0202 6.59879 13.1767 6.46946 13.306C6.34014 13.4353 6.18365 13.5 6 13.5ZM12 13.5C11.8164 13.5 11.6599 13.4353 11.5305 13.306C11.4012 13.1767 11.3366 13.0202 11.3366 12.8365C11.3366 12.6529 11.4012 12.4964 11.5305 12.3671C11.6599 12.2377 11.8164 12.173 12 12.173C12.1837 12.173 12.3401 12.2377 12.4695 12.3671C12.5988 12.4964 12.6635 12.6529 12.6635 12.8365C12.6635 13.0202 12.5988 13.1767 12.4695 13.306C12.3401 13.4353 12.1837 13.5 12 13.5Z" fill="#AEBAD4"/>
</g>
</svg>
