<svg width="19" height="19" viewBox="0 0 19 19" fill="none" xmlns="http://www.w3.org/2000/svg">
<path d="M16.6336 3.16413L14.3885 5.40925L15.9518 6.97256C16.0472 7.06792 16.1121 7.18941 16.1384 7.32167C16.1647 7.45393 16.1512 7.59102 16.0996 7.7156C16.048 7.84018 15.9606 7.94667 15.8485 8.02159C15.7363 8.09651 15.6045 8.13651 15.4697 8.13652H11.3788C11.1979 8.13652 11.0245 8.06468 10.8967 7.93682C10.7688 7.80895 10.697 7.63553 10.697 7.45471V3.3638C10.697 3.22895 10.737 3.09714 10.8119 2.98502C10.8868 2.8729 10.9933 2.78551 11.1179 2.73391C11.2425 2.6823 11.3795 2.66879 11.5118 2.69509C11.6441 2.72139 11.7656 2.78631 11.8609 2.88165L13.4242 4.44496L15.6693 2.19983C15.7327 2.13652 15.8078 2.08629 15.8906 2.05203C15.9733 2.01776 16.062 2.00012 16.1515 2.00012C16.241 2.00012 16.3297 2.01776 16.4124 2.05203C16.4952 2.08629 16.5703 2.13652 16.6336 2.19983C16.697 2.26315 16.7472 2.33832 16.7815 2.42105C16.8157 2.50377 16.8334 2.59244 16.8334 2.68198C16.8334 2.77153 16.8157 2.8602 16.7815 2.94292C16.7472 3.02565 16.697 3.10082 16.6336 3.16413ZM7.28787 10.8638H3.19696C3.06211 10.8638 2.9303 10.9038 2.81818 10.9787C2.70606 11.0537 2.61867 11.1601 2.56707 11.2847C2.51546 11.4093 2.50195 11.5464 2.52825 11.6786C2.55455 11.8109 2.61947 11.9324 2.71481 12.0278L4.27812 13.5911L2.033 15.8362C1.96968 15.8995 1.91945 15.9747 1.88519 16.0574C1.85092 16.1401 1.83328 16.2288 1.83328 16.3183C1.83328 16.4079 1.85092 16.4965 1.88519 16.5793C1.91945 16.662 1.96968 16.7372 2.033 16.8005C2.16087 16.9284 2.3343 17.0002 2.51515 17.0002C2.60469 17.0002 2.69336 16.9826 2.77608 16.9483C2.85881 16.914 2.93398 16.8638 2.99729 16.8005L5.24241 14.5554L6.80572 16.1187C6.90108 16.214 7.02257 16.2789 7.15483 16.3052C7.28709 16.3315 7.42418 16.318 7.54876 16.2664C7.67334 16.2148 7.77983 16.1274 7.85475 16.0153C7.92967 15.9032 7.96967 15.7714 7.96969 15.6365V11.5456C7.96968 11.3648 7.89784 11.1914 7.76998 11.0635C7.64211 10.9356 7.46869 10.8638 7.28787 10.8638Z" fill="white"/>
</svg>
