<svg width="19" height="19" viewBox="0 0 19 19" fill="none" xmlns="http://www.w3.org/2000/svg">
<path d="M17.1667 9.5H11.9167C11.4298 9.5 10.9561 9.34212 10.5667 9.05L8.76666 7.7C8.37718 7.4079 7.90349 7.25 7.41666 7.25H2.16666" stroke="white" stroke-width="0.84375" stroke-linecap="round" stroke-linejoin="round"/>
<path d="M2.91666 7.25V8.75C2.91666 11.5784 2.91666 12.9927 3.79533 13.8713C4.67402 14.75 6.08823 14.75 8.91666 14.75H11.1667C13.2733 14.75 14.3267 14.75 15.0834 14.2444C15.4109 14.0255 15.6922 13.7442 15.9111 13.4167C16.4167 12.66 16.4167 11.6067 16.4167 9.5" stroke="white" stroke-width="0.84375" stroke-linecap="round" stroke-linejoin="round"/>
<path d="M14.1667 14.75V16.25M5.16666 14.75V16.25" stroke="white" stroke-width="0.84375" stroke-linecap="round" stroke-linejoin="round"/>
<path d="M4.41666 7.25V3.875C4.41666 3.25368 4.92033 2.75 5.54166 2.75C6.16298 2.75 6.66666 3.25368 6.66666 3.875V4.25" stroke="white" stroke-width="0.84375" stroke-linecap="round" stroke-linejoin="round"/>
</svg>
