<svg width="18" height="19" viewBox="0 0 18 19" fill="none" xmlns="http://www.w3.org/2000/svg">
<path d="M16.5 13.625H1.5" stroke="white" stroke-width="0.84375" stroke-linecap="round" stroke-linejoin="round"/>
<path d="M16.5 16.25V12.5C16.5 11.0858 16.5 10.3787 16.0606 9.93935C15.6213 9.5 14.9142 9.5 13.5 9.5H4.5C3.08579 9.5 2.37868 9.5 1.93934 9.93935C1.5 10.3787 1.5 11.0858 1.5 12.5V16.25" stroke="white" stroke-width="0.84375" stroke-linecap="round" stroke-linejoin="round"/>
<path d="M12 9.5V8.46335C12 8.08272 11.9314 7.95541 11.5797 7.80538C10.8473 7.49292 9.95835 7.25 9 7.25C8.04165 7.25 7.15266 7.49292 6.4203 7.80538C6.06866 7.95541 6 8.08272 6 8.46335V9.5" stroke="white" stroke-width="0.84375" stroke-linecap="round"/>
<path d="M2.25 9.5V7.25C2.25 6.18934 2.25 5.65901 2.57951 5.32951C2.90901 5 3.43934 5 4.5 5C4.70606 5 4.99264 5.05454 5.17712 4.95509C5.26043 4.91019 5.33512 4.79666 5.48452 4.56962C6.20191 3.47935 7.66845 2.75 9 2.75C10.3316 2.75 11.7981 3.47935 12.5155 4.56962C12.6649 4.79666 12.7396 4.91019 12.8229 4.95509C13.0074 5.05454 13.2939 5 13.5 5C14.5606 5 15.091 5 15.4205 5.32951C15.75 5.65901 15.75 6.18934 15.75 7.25V9.5" stroke="white" stroke-width="0.84375"/>
</svg>
