<svg width="15" height="17" viewBox="0 0 15 17" fill="none" xmlns="http://www.w3.org/2000/svg">
<path d="M11.875 6.59683C11.875 4.14423 9.91628 2.15601 7.50003 2.15601C5.08378 2.15601 3.12503 4.14423 3.12503 6.59683C3.12503 7.47675 3.38128 8.29513 3.81566 8.98537H3.81066C5.28566 11.3295 7.50003 14.8441 7.50003 14.8441L11.1894 8.98537H11.185C11.6188 8.29513 11.875 7.47675 11.875 6.59683ZM7.50003 8.50005C6.46441 8.50005 5.62503 7.64804 5.62503 6.59683C5.62503 5.54563 6.46441 4.69362 7.50003 4.69362C8.53566 4.69362 9.37503 5.54563 9.37503 6.59683C9.37503 7.64804 8.53566 8.50005 7.50003 8.50005Z" fill="#AEBAD4"/>
</svg>
