<svg width="16" height="20" viewBox="0 0 16 20" fill="none" xmlns="http://www.w3.org/2000/svg">
<path d="M14 8.66663C14 13.3333 8 17.3333 8 17.3333C8 17.3333 2 13.3333 2 8.66663C2 7.07533 2.63214 5.5492 3.75736 4.42399C4.88258 3.29877 6.4087 2.66663 8 2.66663C9.5913 2.66663 11.1174 3.29877 12.2426 4.42399C13.3679 5.5492 14 7.07533 14 8.66663Z" stroke="#AEBAD4" stroke-width="1.33333" stroke-linecap="round" stroke-linejoin="round"/>
<path d="M8 10.6666C9.10457 10.6666 10 9.7712 10 8.66663C10 7.56206 9.10457 6.66663 8 6.66663C6.89543 6.66663 6 7.56206 6 8.66663C6 9.7712 6.89543 10.6666 8 10.6666Z" stroke="#AEBAD4" stroke-width="1.33333" stroke-linecap="round" stroke-linejoin="round"/>
</svg>
