<svg width="24" height="24" viewBox="0 0 24 24" fill="none" xmlns="http://www.w3.org/2000/svg">
<mask id="mask0_2_517" style="mask-type:alpha" maskUnits="userSpaceOnUse" x="0" y="0" width="24" height="24">
<rect width="24" height="24" fill="#D9D9D9"/>
</mask>
<g mask="url(#mask0_2_517)">
<path d="M4.30773 19.5001C3.8026 19.5001 3.37503 19.3251 3.02503 18.9751C2.67503 18.6251 2.50003 18.1975 2.50003 17.6924V6.30784C2.50003 5.80271 2.67503 5.37514 3.02503 5.02514C3.37503 4.67514 3.8026 4.50014 4.30773 4.50014H14.3308C14.2833 4.75014 14.258 4.99853 14.2548 5.24532C14.2516 5.49212 14.2705 5.74372 14.3116 6.00012H4.15386L12 11.0001L15.6115 8.69627C15.7872 8.86165 15.974 9.01068 16.1721 9.14337C16.3702 9.27607 16.5775 9.39433 16.7942 9.49817L12 12.5578L4.00001 7.44239V17.6924C4.00001 17.7821 4.02886 17.8559 4.08656 17.9136C4.14426 17.9713 4.21798 18.0001 4.30773 18.0001H19.6923C19.782 18.0001 19.8558 17.9713 19.9135 17.9136C19.9712 17.8559 20 17.7821 20 17.6924V10.0251C20.2872 9.96102 20.5542 9.87641 20.801 9.77129C21.0477 9.66616 21.2808 9.53732 21.5 9.38477V17.6924C21.5 18.1975 21.325 18.6251 20.975 18.9751C20.625 19.3251 20.1974 19.5001 19.6923 19.5001H4.30773ZM19 8.13474C18.2372 8.13474 17.5882 7.86712 17.0529 7.33187C16.5177 6.79662 16.25 6.14758 16.25 5.38477C16.25 4.62195 16.5177 3.97292 17.0529 3.43767C17.5882 2.9024 18.2372 2.63477 19 2.63477C19.7628 2.63477 20.4119 2.9024 20.9471 3.43767C21.4824 3.97292 21.75 4.62195 21.75 5.38477C21.75 6.14758 21.4824 6.79662 20.9471 7.33187C20.4119 7.86712 19.7628 8.13474 19 8.13474Z" fill="white"/>
</g>
</svg>
