<svg width="36" height="36" viewBox="0 0 36 36" fill="none" xmlns="http://www.w3.org/2000/svg">
<circle opacity="0.1" cx="18" cy="18" r="18" fill="#1A5EFE"/>
<path d="M25.9563 14.7041C25.9188 13.8539 25.7813 13.2694 25.5844 12.763C25.3812 12.2254 25.0687 11.7441 24.6592 11.344C24.2591 10.9377 23.7746 10.6219 23.2432 10.422C22.7338 10.225 22.1524 10.0875 21.3023 10.0501C20.4458 10.0094 20.1739 10 18.0016 10C15.8293 10 15.5574 10.0094 14.7041 10.0469C13.8539 10.0844 13.2694 10.222 12.7631 10.4188C12.2254 10.6219 11.7441 10.9345 11.344 11.344C10.9377 11.7441 10.6221 12.2286 10.422 12.7599C10.225 13.2694 10.0875 13.8507 10.0501 14.7009C10.0094 15.5574 10 15.8293 10 18.0016C10 20.1739 10.0094 20.4458 10.0469 21.2991C10.0844 22.1493 10.222 22.7337 10.4189 23.2402C10.6221 23.7778 10.9377 24.2591 11.344 24.6592C11.7441 25.0655 12.2286 25.3812 12.7599 25.5812C13.2694 25.7782 13.8507 25.9156 14.701 25.9531C15.5542 25.9907 15.8262 26 17.9985 26C20.1708 26 20.4427 25.9907 21.2961 25.9531C22.1462 25.9156 22.7307 25.7782 23.237 25.5812C24.3123 25.1655 25.1624 24.3153 25.5782 23.2402C25.775 22.7307 25.9126 22.1493 25.9501 21.2991C25.9875 20.4458 25.9969 20.1739 25.9969 18.0016C25.9969 15.8293 25.9938 15.5574 25.9563 14.7041ZM24.5155 21.2366C24.481 22.018 24.3498 22.44 24.2404 22.7213C23.9715 23.4183 23.4183 23.9715 22.7213 24.2404C22.44 24.3498 22.015 24.481 21.2366 24.5153C20.3927 24.5529 20.1396 24.5622 18.0048 24.5622C15.8699 24.5622 15.6137 24.5529 14.7728 24.5153C13.9914 24.481 13.5694 24.3498 13.2881 24.2404C12.9413 24.1122 12.6255 23.909 12.3692 23.6433C12.1036 23.3839 11.9004 23.0713 11.7722 22.7244C11.6628 22.4431 11.5316 22.018 11.4972 21.2398C11.4596 20.3959 11.4504 20.1426 11.4504 18.0078C11.4504 15.873 11.4596 15.6167 11.4972 14.776C11.5316 13.9946 11.6628 13.5726 11.7722 13.2913C11.9004 12.9443 12.1036 12.6287 12.3724 12.3723C12.6317 12.1066 12.9443 11.9035 13.2913 11.7754C13.5726 11.666 13.9977 11.5347 14.776 11.5003C15.6199 11.4628 15.8731 11.4534 18.0078 11.4534C20.1458 11.4534 20.3989 11.4628 21.2398 11.5003C22.0212 11.5347 22.4431 11.666 22.7244 11.7754C23.0713 11.9035 23.3871 12.1066 23.6433 12.3723C23.909 12.6317 24.1122 12.9443 24.2404 13.2913C24.3498 13.5726 24.481 13.9976 24.5155 14.776C24.5529 15.6199 24.5623 15.873 24.5623 18.0078C24.5623 20.1426 24.5529 20.3927 24.5155 21.2366Z" fill="white"/>
<path d="M18.0016 13.8917C15.7325 13.8917 13.8914 15.7326 13.8914 18.0019C13.8914 20.2711 15.7325 22.112 18.0016 22.112C20.2708 22.112 22.1118 20.2711 22.1118 18.0019C22.1118 15.7326 20.2708 13.8917 18.0016 13.8917ZM18.0016 20.668C16.5295 20.668 15.3354 19.4741 15.3354 18.0019C15.3354 16.5296 16.5295 15.3357 18.0016 15.3357C19.4738 15.3357 20.6678 16.5296 20.6678 18.0019C20.6678 19.4741 19.4738 20.668 18.0016 20.668Z" fill="white"/>
<path d="M23.2342 13.7283C23.2342 14.2582 22.8045 14.6878 22.2745 14.6878C21.7446 14.6878 21.315 14.2582 21.315 13.7283C21.315 13.1983 21.7446 12.7688 22.2745 12.7688C22.8045 12.7688 23.2342 13.1983 23.2342 13.7283Z" fill="white"/>
</svg>
