<svg width="36" height="36" viewBox="0 0 36 36" fill="none" xmlns="http://www.w3.org/2000/svg">
<circle cx="18" cy="18" r="18" fill="#1A5EFE"/>
<path d="M14.0327 16.1772H11.4172C11.3011 16.1772 11.2071 16.2713 11.2071 16.3873V24.7899C11.2071 24.9059 11.3011 25 11.4172 25H14.0327C14.1488 25 14.2429 24.9059 14.2429 24.7899V16.3873C14.2429 16.2713 14.1488 16.1772 14.0327 16.1772Z" fill="white"/>
<path d="M12.7259 12C11.7742 12 11 12.7734 11 13.724C11 14.6751 11.7742 15.4488 12.7259 15.4488C13.6768 15.4488 14.4504 14.675 14.4504 13.724C14.4505 12.7734 13.6768 12 12.7259 12Z" fill="white"/>
<path d="M20.6855 15.9682C19.635 15.9682 18.8585 16.4198 18.3875 16.9329V16.3871C18.3875 16.2711 18.2934 16.177 18.1773 16.177H15.6725C15.5564 16.177 15.4624 16.2711 15.4624 16.3871V24.7897C15.4624 24.9058 15.5564 24.9998 15.6725 24.9998H18.2823C18.3984 24.9998 18.4925 24.9058 18.4925 24.7897V20.6324C18.4925 19.2315 18.873 18.6857 19.8495 18.6857C20.9131 18.6857 20.9976 19.5606 20.9976 20.7044V24.7897C20.9976 24.9058 21.0917 24.9999 21.2077 24.9999H23.8185C23.9346 24.9999 24.0287 24.9058 24.0287 24.7897V20.1808C24.0287 18.0977 23.6314 15.9682 20.6855 15.9682Z" fill="white"/>
</svg>
