<svg width="24" height="24" viewBox="0 0 24 24" fill="none" xmlns="http://www.w3.org/2000/svg">
<mask id="mask0_2_512" style="mask-type:alpha" maskUnits="userSpaceOnUse" x="0" y="0" width="24" height="24">
<rect width="24" height="24" fill="#D9D9D9"/>
</mask>
<g mask="url(#mask0_2_512)">
<path d="M12 11.75C12.4859 11.75 12.899 11.5798 13.2394 11.2394C13.5798 10.899 13.75 10.4859 13.75 9.99997C13.75 9.51407 13.5798 9.10094 13.2394 8.76058C12.899 8.42019 12.4859 8.25 12 8.25C11.5141 8.25 11.101 8.42019 10.7606 8.76058C10.4202 9.10094 10.25 9.51407 10.25 9.99997C10.25 10.4859 10.4202 10.899 10.7606 11.2394C11.101 11.5798 11.5141 11.75 12 11.75ZM12 19.8019C14.059 17.9609 15.6154 16.2042 16.6693 14.5317C17.7231 12.8593 18.25 11.4154 18.25 10.2C18.25 8.30638 17.6468 6.75797 16.4404 5.55477C15.234 4.35156 13.7539 3.74995 12 3.74995C10.2462 3.74995 8.76602 4.35156 7.55961 5.55477C6.35319 6.75797 5.74998 8.30638 5.74998 10.2C5.74998 11.4154 6.27691 12.8593 7.33076 14.5317C8.38461 16.2042 9.94102 17.9609 12 19.8019ZM12 21.8077C9.39361 19.5436 7.45034 17.442 6.17021 15.5029C4.89009 13.5638 4.25003 11.7961 4.25003 10.2C4.25003 7.77691 5.03016 5.84614 6.59041 4.40768C8.15066 2.96923 9.95386 2.25 12 2.25C14.0462 2.25 15.8494 2.96923 17.4096 4.40768C18.9699 5.84614 19.75 7.77691 19.75 10.2C19.75 11.7961 19.1099 13.5638 17.8298 15.5029C16.5497 17.442 14.6064 19.5436 12 21.8077Z" fill="white"/>
</g>
</svg>
