<svg width="36" height="36" viewBox="0 0 36 36" fill="none" xmlns="http://www.w3.org/2000/svg">
<circle opacity="0.1" cx="18" cy="18" r="18" fill="#1A5EFE"/>
<path d="M25.2727 13.4206C24.7048 13.6615 24.0996 13.8212 23.4686 13.8988C24.1177 13.524 24.6131 12.9351 24.846 12.2252C24.2409 12.5742 23.5727 12.8206 22.8606 12.9582C22.286 12.3665 21.467 12 20.5735 12C18.84 12 17.4445 13.3606 17.4445 15.0286C17.4445 15.2686 17.4655 15.4994 17.517 15.7191C14.914 15.5963 12.6107 14.3898 11.0634 12.552C10.7932 13.0052 10.6348 13.524 10.6348 14.0825C10.6348 15.1311 11.1932 16.0606 12.0255 16.5988C11.5225 16.5895 11.029 16.4483 10.6109 16.2258C10.6109 16.2351 10.6109 16.2471 10.6109 16.2591C10.6109 17.7305 11.6962 18.9526 13.1195 19.2342C12.8646 19.3015 12.5868 19.3338 12.2985 19.3338C12.0981 19.3338 11.8957 19.3228 11.7058 19.2822C12.1115 20.4812 13.2626 21.3628 14.6315 21.3914C13.5662 22.1972 12.2136 22.6828 10.7493 22.6828C10.4925 22.6828 10.2463 22.6717 10 22.6412C11.387 23.5062 13.0307 24 14.8033 24C20.5649 24 23.7149 19.3846 23.7149 15.384C23.7149 15.2502 23.7101 15.1209 23.7035 14.9926C24.3249 14.5662 24.847 14.0335 25.2727 13.4206Z" fill="white"/>
</svg>
