<svg width="22" height="22" viewBox="0 0 22 22" fill="none" xmlns="http://www.w3.org/2000/svg">
<mask id="mask0_2_292" style="mask-type:alpha" maskUnits="userSpaceOnUse" x="0" y="0" width="22" height="22">
<rect width="22" height="22" fill="#D9D9D9"/>
</mask>
<g mask="url(#mask0_2_292)">
<path d="M9.67087 15.186L16.1487 8.70825L15.0181 7.59297L9.67087 12.9402L6.96671 10.236L5.85142 11.3513L9.67087 15.186ZM11 20.1666C9.74218 20.1666 8.5556 19.926 7.44033 19.4447C6.32505 18.9635 5.35236 18.3078 4.52226 17.4777C3.69217 16.6476 3.0365 15.6749 2.55525 14.5596C2.074 13.4444 1.83337 12.2578 1.83337 10.9999C1.83337 9.73186 2.074 8.5402 2.55525 7.42492C3.0365 6.30964 3.69217 5.3395 4.52226 4.5145C5.35236 3.6895 6.32505 3.03638 7.44033 2.55513C8.5556 2.07388 9.74218 1.83325 11 1.83325C12.2681 1.83325 13.4598 2.07388 14.575 2.55513C15.6903 3.03638 16.6605 3.6895 17.4855 4.5145C18.3105 5.3395 18.9636 6.30964 19.4448 7.42492C19.9261 8.5402 20.1667 9.73186 20.1667 10.9999C20.1667 12.2578 19.9261 13.4444 19.4448 14.5596C18.9636 15.6749 18.3105 16.6476 17.4855 17.4777C16.6605 18.3078 15.6903 18.9635 14.575 19.4447C13.4598 19.926 12.2681 20.1666 11 20.1666Z" fill="#4AB561"/>
</g>
</svg>
