<svg width="152" height="34" viewBox="0 0 152 34" fill="none" xmlns="http://www.w3.org/2000/svg">
<path d="M55.32 17.528C55.32 15.752 55.64 14.216 56.28 12.92C56.936 11.624 57.872 10.624 59.088 9.92C60.304 9.2 61.752 8.84 63.432 8.84C65.096 8.84 66.536 9.2 67.752 9.92C68.968 10.624 69.904 11.624 70.56 12.92C71.232 14.216 71.568 15.744 71.568 17.504C71.568 19.28 71.232 20.824 70.56 22.136C69.904 23.432 68.968 24.44 67.752 25.16C66.536 25.88 65.096 26.24 63.432 26.24C61.752 26.24 60.304 25.88 59.088 25.16C57.888 24.44 56.96 23.432 56.304 22.136C55.648 20.824 55.32 19.288 55.32 17.528ZM58.56 17.528C58.56 19.432 58.968 20.92 59.784 21.992C60.6 23.064 61.816 23.6 63.432 23.6C65 23.6 66.208 23.064 67.056 21.992C67.904 20.92 68.328 19.432 68.328 17.528C68.328 15.608 67.904 14.12 67.056 13.064C66.224 12.008 65.016 11.48 63.432 11.48C61.816 11.48 60.6 12.008 59.784 13.064C58.968 14.12 58.56 15.608 58.56 17.528ZM78.8906 26.24C77.4026 26.24 76.2906 25.832 75.5546 25.016C74.8186 24.2 74.4506 22.952 74.4506 21.272V13.88H77.4506V21.248C77.4506 22.144 77.6346 22.808 78.0026 23.24C78.3706 23.656 78.9306 23.864 79.6826 23.864C80.5306 23.864 81.2186 23.576 81.7466 23C82.2906 22.424 82.5626 21.664 82.5626 20.72V13.88H85.5626V26H82.6346V23.528H82.9706C82.6186 24.392 82.0826 25.064 81.3626 25.544C80.6586 26.008 79.8346 26.24 78.8906 26.24ZM94.0035 26.24C92.5635 26.24 91.4755 25.864 90.7395 25.112C90.0035 24.36 89.6355 23.232 89.6355 21.728V16.136H87.3075V13.88H89.6355V10.784L92.6355 10.016V13.88H95.8755V16.136H92.6355V21.536C92.6355 22.368 92.7955 22.952 93.1155 23.288C93.4355 23.624 93.8755 23.792 94.4355 23.792C94.7395 23.792 94.9955 23.768 95.2035 23.72C95.4275 23.672 95.6435 23.608 95.8515 23.528V25.904C95.5795 26.016 95.2755 26.096 94.9395 26.144C94.6195 26.208 94.3075 26.24 94.0035 26.24ZM98.1533 26V9.08H109.313V11.504H101.249V16.304H108.761V18.728H101.249V26H98.1533ZM111.648 26V8.336H114.648V26H111.648ZM123.377 26.24C122.129 26.24 121.049 25.984 120.137 25.472C119.225 24.96 118.513 24.232 118.001 23.288C117.505 22.344 117.257 21.224 117.257 19.928C117.257 18.632 117.505 17.52 118.001 16.592C118.513 15.648 119.225 14.92 120.137 14.408C121.049 13.896 122.129 13.64 123.377 13.64C124.625 13.64 125.705 13.896 126.617 14.408C127.545 14.92 128.257 15.648 128.753 16.592C129.265 17.52 129.521 18.632 129.521 19.928C129.521 21.224 129.265 22.344 128.753 23.288C128.257 24.232 127.545 24.96 126.617 25.472C125.705 25.984 124.625 26.24 123.377 26.24ZM123.377 23.936C124.321 23.936 125.073 23.608 125.633 22.952C126.193 22.28 126.473 21.272 126.473 19.928C126.473 18.584 126.193 17.584 125.633 16.928C125.073 16.272 124.321 15.944 123.377 15.944C122.433 15.944 121.681 16.272 121.121 16.928C120.561 17.584 120.281 18.584 120.281 19.928C120.281 21.272 120.561 22.28 121.121 22.952C121.681 23.608 122.433 23.936 123.377 23.936ZM135.234 26L130.506 13.88H133.602L137.01 23.312H136.386L139.842 13.88H141.978L145.41 23.312H144.858L148.242 13.88H151.17L146.442 26H143.802L140.178 16.352H141.45L137.898 26H135.234Z" fill="#1A5EFE"/>
<g clip-path="url(#clip0_2_228)">
<path fill-rule="evenodd" clip-rule="evenodd" d="M22.1711 15.3237V14.1087L3.95155 27.1169V28.3319L22.1711 15.3237ZM23.829 5.66797L45.3611 21.074V28.2194H23.829V5.66797ZM22.1711 9.04779L0.638916 24.4314V27.4399L22.1711 12.066V9.04779Z" fill="#1A5EFE"/>
</g>
<defs>
<clipPath id="clip0_2_228">
<rect width="46" height="24" fill="white" transform="translate(0 5)"/>
</clipPath>
</defs>
</svg>
